<svg width="250" height="165" viewBox="0 0 250 165" fill="none" xmlns="http://www.w3.org/2000/svg">
<g clip-path="url(#clip0_2_16)">
<path d="M214.152 160.412L214.159 163.079V163.642H209.01V162.797L209.007 152.368L209 142.265V140.41L208.997 132.89L208.993 132.769L208.098 107.447V107.427L207.185 81.615V81.6116L207.162 80.9106L202.717 83.2687L197.236 86.1769L194.633 87.5589L190.917 89.5279L184.651 92.8554H184.647L152.15 110.093L152.083 163.079V163.642H147.112L147.092 163.079L145.442 112.106L97.5147 92.9963L92.443 90.9736L90.276 61.0628C89.7326 53.5659 93.7512 46.6928 100.111 43.3452C101.681 42.52 103.392 41.9095 105.21 41.5573L112.529 40.1384L130.797 36.5929L136.707 35.449L144.432 33.9496L147.478 33.3593L152.486 32.3865L152.939 32.2993L154.351 32.0242L154.854 31.9269L155.672 31.7693L156.249 32.789C156.253 32.789 156.253 32.7924 156.253 32.7957L159.647 38.8201L160.258 39.907L160.261 39.9103L163.203 45.1263C163.203 45.1263 163.206 45.1297 163.206 45.133L166.071 50.2182L171.693 51.3352L174.464 51.8853L191.638 55.2967L193.902 55.7495H193.905L199.635 56.8867L201.151 57.1886L208.232 58.594L208.285 58.6041L211.429 59.228L216.722 60.2813L214.075 132.89L214.125 150.59V150.594L214.152 160.412H214.152Z" fill="#3F3D56"/>
<path d="M126.282 20.4886C125.53 19.0731 123.37 16.0441 120.881 12.6428C120.418 12.0088 119.945 11.3648 119.469 10.714C118.62 9.56349 117.758 8.39282 116.923 7.25234C116.39 6.50096 115.346 6.32319 114.595 6.85317L109.59 10.3954C108.839 10.9254 108.658 11.9686 109.191 12.7199L110.697 14.8499L111.093 15.4101L111.677 16.2353L112.378 17.2248V17.2282L112.576 17.5032L113.273 18.4928L113.659 19.0362L117.037 23.8128L118.553 25.9562C119.083 26.7076 120.126 26.8854 120.878 26.3554L125.232 23.2727L125.846 22.84L125.882 22.8132C126.634 22.2832 126.815 21.24 126.282 20.4886Z" fill="#3F3D56"/>
<path d="M120.874 12.569L119.57 10.7274C119.546 10.6939 119.503 10.6872 119.472 10.7107L119.469 10.714C119.439 10.7342 119.432 10.7744 119.456 10.808L120.76 12.6529C120.781 12.683 120.824 12.6897 120.858 12.6696C120.868 12.6629 120.874 12.6529 120.881 12.6428C120.891 12.6193 120.891 12.5925 120.874 12.569H120.874Z" fill="#3F3D56"/>
<path d="M116.792 7.3436L126.153 20.5802C126.615 21.2339 126.485 22.1285 125.871 22.6249L125.87 22.6251C125.861 22.6324 125.852 22.6397 125.843 22.6469C125.826 22.6598 125.809 22.6721 125.792 22.6844C125.792 22.6844 125.726 22.7246 125.604 22.7978C125.481 22.8719 125.301 22.9794 125.077 23.1125C125.01 23.1526 124.939 23.1946 124.864 23.239C124.714 23.3273 124.55 23.4243 124.374 23.5274C124.304 23.5688 124.231 23.6112 124.157 23.6547C123.777 23.8769 123.351 24.1243 122.899 24.3823C122.823 24.4262 122.746 24.4702 122.669 24.5144C122.648 24.5258 118.79 26.0188 118.681 25.8644L109.32 12.6277C108.839 11.9469 109 11.005 109.681 10.5236L110.417 10.0032C110.535 9.92011 110.694 9.9449 110.787 10.055C110.793 10.0622 110.8 10.0694 110.806 10.0761C110.911 10.1789 111.077 10.1846 111.197 10.0998L113.783 8.2708C113.903 8.18604 113.953 8.02753 113.891 7.89461C113.887 7.88581 113.883 7.87743 113.878 7.86904C113.805 7.74465 113.835 7.5862 113.952 7.50307L114.688 6.98271C115.369 6.50126 116.311 6.66281 116.792 7.3436H116.792Z" fill="#008C81"/>
<path d="M111.09 15.343L110.761 14.8801C110.748 14.86 110.724 14.8466 110.697 14.8499C110.687 14.8499 110.674 14.8566 110.664 14.8634C110.634 14.8868 110.624 14.9304 110.647 14.9606L110.972 15.4235C110.996 15.4537 111.039 15.4638 111.073 15.4403C111.083 15.4336 111.09 15.4235 111.093 15.4101C111.103 15.39 111.103 15.3631 111.09 15.343L111.09 15.343Z" fill="#3F3D56"/>
<path d="M112.371 17.1577L111.741 16.2621C111.724 16.242 111.7 16.2319 111.677 16.2353C111.663 16.2353 111.65 16.2387 111.643 16.2454C111.61 16.2688 111.603 16.3124 111.626 16.346L112.257 17.2382C112.281 17.2684 112.324 17.2785 112.354 17.255C112.364 17.2483 112.371 17.2382 112.378 17.2282V17.2248C112.388 17.2047 112.388 17.1779 112.371 17.1577V17.1577Z" fill="#3F3D56"/>
<path d="M113.267 18.4257L112.636 17.5301C112.619 17.5099 112.596 17.4999 112.576 17.5032C112.562 17.5032 112.549 17.5066 112.539 17.5133C112.505 17.5368 112.499 17.5804 112.522 17.6139L113.153 18.5062C113.176 18.5364 113.22 18.5464 113.25 18.523C113.26 18.5163 113.27 18.5062 113.273 18.4928C113.284 18.4726 113.284 18.4458 113.267 18.4257V18.4257Z" fill="#3F3D56"/>
<path d="M110.478 10.2625L109.499 10.9552C109.459 10.9833 109.45 11.0384 109.478 11.0782C109.506 11.118 109.561 11.1274 109.601 11.0993L110.58 10.4065C110.62 10.3784 110.63 10.3234 110.601 10.2836C110.573 10.2438 110.518 10.2344 110.478 10.2625Z" fill="#E6E6E6"/>
<path d="M114.297 7.74606C114.375 7.74606 114.439 7.68286 114.439 7.60491C114.439 7.52696 114.375 7.46376 114.297 7.46376C114.22 7.46376 114.156 7.52696 114.156 7.60491C114.156 7.68286 114.22 7.74606 114.297 7.74606Z" fill="#E6E6E6"/>
<path d="M114.614 7.52194C114.692 7.52194 114.756 7.45874 114.756 7.38079C114.756 7.30283 114.692 7.23964 114.614 7.23964C114.536 7.23964 114.473 7.30283 114.473 7.38079C114.473 7.45874 114.536 7.52194 114.614 7.52194Z" fill="#E6E6E6"/>
<path d="M114.931 7.29781C115.009 7.29781 115.072 7.23462 115.072 7.15667C115.072 7.07871 115.009 7.01552 114.931 7.01552C114.853 7.01552 114.79 7.07871 114.79 7.15667C114.79 7.23462 114.853 7.29781 114.931 7.29781Z" fill="#E6E6E6"/>
<path d="M152.486 15.5007H133.031V33.9496H152.486V15.5007Z" fill="#2F2E41"/>
<path d="M119.282 21.4885C118.673 22.4786 117.89 23.2489 117.082 23.7278L111.87 33.5266L107.28 30.9102L113.061 21.252C113.125 20.3148 113.46 19.2691 114.07 18.279C115.462 16.0171 117.758 14.902 119.198 15.7883C120.637 16.6746 120.675 19.2266 119.282 21.4885Z" fill="#A0616A"/>
<path d="M207.733 152.623L211.918 151.784L210.03 132.561L203.854 133.798L207.733 152.623Z" fill="#A0616A"/>
<path d="M223.968 158.093C224.127 158.797 223.756 159.479 223.14 159.618L214.878 161.477C214.878 161.477 213.329 158.391 209.698 157.731L210.521 162.457L206.259 163.416L205.084 155.783C205.084 155.783 203.038 152.018 204.944 149.429C206.849 146.841 204.996 147.559 204.996 147.559L204.88 142.696L211.491 142.004L213.182 149.297L217.939 155.843L223.033 157.076C223.486 157.186 223.854 157.586 223.968 158.093H223.968Z" fill="#2F2E41"/>
<path d="M135.546 54.2435L135.882 56.5915C135.882 56.5915 142.926 64.3065 144.603 67.6609L164.95 57.5978L161.375 49.2119L135.546 54.2435Z" fill="#A0616A"/>
<path d="M161.039 56.9269C161.039 56.9269 142.028 62.2939 143.651 67.6609C145.274 73.0278 146.276 75.2319 146.276 75.2319C146.276 75.2319 142.591 83.4263 153.995 87.1161C165.4 90.8059 189.887 93.4894 189.887 93.4894L204.478 141.624L211.355 139.779L205.773 84.3488L178.482 74.705L180.159 64.6419L174.457 66.99L164.95 56.4687L161.039 56.9269V56.9269Z" fill="#E6E6E6"/>
<path d="M189.449 103.854L193.509 105.17L201.266 87.4801L195.275 85.538L189.449 103.854Z" fill="#A0616A"/>
<path d="M200.933 116.567C200.727 117.258 200.07 117.672 199.466 117.491L191.35 115.071C191.35 115.071 191.509 111.623 188.664 109.27L187.07 113.795L182.884 112.547L185.593 105.314C185.593 105.314 185.651 101.03 188.579 99.7042C191.507 98.3785 189.539 98.0978 189.539 98.0978L191.817 93.8007L197.921 96.4312L195.829 103.619L196.776 111.655L200.615 115.222C200.957 115.54 201.082 116.068 200.933 116.567L200.933 116.567V116.567Z" fill="#2F2E41"/>
<path d="M172.81 67.6609L180.159 64.642L197.266 53.5726C197.266 53.5726 210.348 43.1081 211.355 57.2294C212.361 71.3507 202.969 93.1539 202.969 93.1539L190.893 89.7996L192.12 74.8516L176.302 79.5688L172.81 67.6609Z" fill="#E6E6E6"/>
<path d="M154.278 30.3747L163.555 55.4175L176.134 69.338L188.545 61.2876L174.205 57.5978L174.585 49.2119L154.278 30.3747Z" fill="#2F2E41"/>
<path d="M99.7959 162.922V163.642H94.8005L94.7877 162.922L93.0597 70.7499H99.5301L99.5429 73.3354L99.7959 162.922Z" fill="#3F3D56"/>
<path d="M203.748 62.8122C202.705 62.2994 201.864 61.5934 201.31 60.8344L191.06 56.5768L193.229 51.759L203.393 56.5965C204.332 56.5711 205.405 56.8057 206.448 57.3185C208.832 58.4901 210.16 60.6696 209.415 62.1867C208.669 63.7037 206.132 63.9838 203.748 62.8122V62.8122Z" fill="#A0616A"/>
<path d="M149.635 29.0858L152.005 28.0571C152.005 28.0571 161.375 30.726 162.213 32.254C163.052 33.7819 167.748 40.1552 167.748 40.1552L200.956 54.2435L197.937 60.2813L174.457 54.2435L161.71 40.8261L149.635 29.0858V29.0858Z" fill="#2F2E41"/>
<path d="M145.945 27.0732L134.875 26.4023L129.173 29.4213L135.546 57.5978C135.546 57.5978 154.315 49.5474 162.541 52.0631C162.541 52.0631 165.516 44.3541 160.259 39.9066L151.647 28.415L145.945 27.0732V27.0732Z" fill="#008C81"/>
<path d="M134.205 28.0795L134.098 26.9915L123.135 31.0984C123.135 31.0984 119.11 34.1173 117.768 35.4591C116.427 36.8008 112.401 39.4843 112.401 39.4843L115.756 27.4086L110.389 25.0606C110.389 25.0606 94.2879 46.193 102.003 47.8702C109.718 49.5474 123.135 46.5284 123.135 46.5284L123.806 83.7617L151.815 84.6003L140.242 45.8576L134.205 28.0795V28.0795Z" fill="#2F2E41"/>
<path d="M142.552 24.9C147.791 24.9 152.038 20.653 152.038 15.4141C152.038 10.1751 147.791 5.92811 142.552 5.92811C137.313 5.92811 133.066 10.1751 133.066 15.4141C133.066 20.653 137.313 24.9 142.552 24.9Z" fill="#A0616A"/>
<path d="M138.062 0.0706782C131.999 1.00905 132.288 3.26186 130.347 4.43133C126.927 6.49169 125.578 12.4414 127.384 16.3675C127.866 17.4165 128.884 18.8476 128.39 20.3928C128.011 21.5789 126.918 22.2786 126.713 22.4054C125.033 23.4425 126.13 22.2087 125.371 23.0762C124.533 24.0339 125.831 25.3865 125.036 27.1015C124.331 28.6218 122.877 28.4935 122.688 29.4495C122.363 31.0958 126.095 34.4059 130.067 34.1456C133.604 33.9138 136.232 30.9237 137.111 28.1078C137.701 26.2214 137.955 22.9768 136.441 21.3991C136.228 21.1778 135.648 20.6419 135.099 19.7219C134.665 18.9938 134.093 18.0354 134.428 17.3738C134.785 16.669 135.796 17.04 136.441 16.3675C137.314 15.4556 136.276 13.9148 136.441 12.3423C136.719 9.67963 140.492 6.47715 144.491 6.97535C149.028 7.54049 150.692 12.474 150.864 13.0132C151.221 14.1306 151.214 15.2117 151.2 17.3738C151.179 20.4767 151.167 22.4215 150.193 24.418C148.794 27.2896 147.011 26.9793 146.504 29.1141C145.713 32.4425 149.433 35.7852 149.858 36.1582C153.012 38.9232 157.776 39.7546 158.579 38.5063C159.303 37.3813 156.126 35.6313 156.231 32.133C156.323 29.1013 158.776 28.1772 158.244 26.0952C157.658 23.8033 154.533 24.3261 153.212 21.7345C151.98 19.3154 154.251 17.9733 153.883 13.0132C153.805 11.9639 153.476 8.95254 151.535 5.96904C150.68 4.65466 149.811 3.31787 148.181 2.61469C146.356 1.82749 141.269 -0.425677 138.062 0.0706782Z" fill="#2F2E41"/>
<path d="M134.037 8.45656C134.283 10.5337 137.402 11.5516 138.733 11.8109C139.297 11.9207 141.201 12.2918 143.094 11.4755C143.793 11.1737 144.048 10.9009 144.771 10.8046C145.75 10.6743 146.243 11.0466 147.79 11.4755C149.51 11.9524 150.37 12.1909 150.809 11.8109C151.526 11.1898 150.975 9.15802 150.138 7.78569C148.59 5.24819 145.757 4.46242 144.435 4.09591C142.926 3.67719 139.862 2.82746 137.056 4.43134C136.681 4.64578 133.787 6.34617 134.037 8.45656V8.45656Z" fill="#2F2E41"/>
<path d="M207.398 62.8773C202.921 64.9648 201.142 62.2386 201.142 62.2386L201.144 61.426L201.157 50.9741C204.275 48.9391 209.537 51.8947 209.537 51.8947L207.512 62.2893L207.398 62.8773V62.8773Z" fill="#3F3D56"/>
<path d="M208.846 49.9836C208.846 49.9836 204.218 48.0021 201.718 49.4946C201.718 49.4946 199.111 52.1363 201.153 52.9043L209.189 53.683C209.189 53.683 211.016 52.4576 210.219 51.4493C209.422 50.4411 208.846 49.9836 208.846 49.9836V49.9836Z" fill="#008C81"/>
<path d="M43.3204 132.924L47.1795 164.225L76.7658 163.797L77.1304 132.924H43.3204Z" fill="#008C81"/>
<path d="M67.8935 127.719C67.0076 127.775 66.518 126.674 67.1882 126.033L67.2549 125.768C67.2462 125.747 67.2374 125.725 67.2285 125.704C66.3305 123.564 64.7227 125.584 62.4057 125.728C58.998 125.94 59.0489 128.517 60.369 131.53C60.7274 132.348 57.6854 125.748 57.6854 121.316C57.6854 120.203 57.7463 119.09 57.8709 117.979C57.9734 117.071 58.1147 116.168 58.2975 115.273C59.2861 110.438 61.427 105.832 64.5149 101.985C65.9994 101.174 67.2373 99.9056 67.9851 98.3852C68.2537 97.8368 70.5617 97.3736 70.6614 96.7726C70.4925 96.7948 67.9269 94.0952 68.0543 93.9374C67.8189 93.5801 67.3975 93.4025 67.1404 93.0539C65.8616 91.3202 64.0998 91.6229 63.18 93.9789C61.2152 94.9706 61.1962 96.6152 62.4018 98.1968C63.1688 99.2031 63.2742 100.565 63.9472 101.642C63.8779 101.731 63.8059 101.817 63.7367 101.905C63.7101 101.939 63.6835 101.974 63.6571 102.008C62.5708 103.413 60.4018 103.053 59.7968 101.383C59.7527 101.261 59.3783 107.86 59.66 101.03C59.9418 94.1999 57.4852 97.6769 56.2415 96.1018C54.756 94.2204 51.7342 95.0755 51.4725 97.4583C51.47 97.4811 51.4675 97.5038 51.4651 97.5266C51.6491 97.6304 51.8292 97.7406 52.0052 97.857C53.0083 98.5205 52.6613 100.076 51.4727 100.259L51.4458 100.263C51.5122 100.925 51.6258 101.581 51.7919 102.226C50.205 108.363 53.6298 110.599 58.5209 110.701L58.7758 111.064C58.3127 112.396 57.9401 113.761 57.6605 115.143C57.3974 116.426 57.2146 117.722 57.1121 119.023L57.1078 119.079C57.023 120.186 55.622 120.657 54.9178 119.798C54.7386 119.58 54.5552 119.388 54.3703 119.237C52.2497 117.495 49.2537 116.853 46.9659 115.453C45.8646 114.779 44.4534 115.65 44.6456 116.927L44.655 116.988C44.9956 117.126 45.328 117.287 45.6492 117.467C45.8333 117.571 46.0136 117.681 46.1898 117.798C47.193 118.461 46.8457 120.016 45.6568 120.199L45.6298 120.203C45.6104 120.206 45.5938 120.209 45.5745 120.211L45.5921 120.253C46.3569 122.052 48.1851 123.218 50.1373 123.111C52.4353 122.985 55.2897 124.907 57.8072 128.304L57.81 128.304C58.3085 130.475 59.0369 132.597 59.973 134.618H67.6998C67.7275 134.532 67.7524 134.444 67.7774 134.358C67.0628 134.402 66.3428 134.361 65.6393 134.231C66.2126 133.527 66.7859 132.818 67.3592 132.115C67.373 132.101 67.3841 132.087 67.3952 132.073C67.686 131.713 67.9795 131.356 68.2703 130.996L68.2705 130.995C68.2887 129.89 68.1562 128.789 67.8937 127.719L67.8935 127.719Z" fill="#F1E456"/>
<path d="M250 163.711C250 163.91 249.839 164.071 249.64 164.071H0V163.351H249.64C249.839 163.351 250 163.512 250 163.711Z" fill="#E6E6E6"/>
</g>
<defs>
<clipPath id="clip0_2_16">
<rect width="250" height="164.225" fill="white"/>
</clipPath>
</defs>
</svg>
